<svg width="11" height="11" viewBox="0 0 11 11" fill="none" xmlns="http://www.w3.org/2000/svg">
<path d="M8.99995 4.87006C9.12336 5.7023 8.98121 6.55227 8.59371 7.29907C8.20621 8.04587 7.5931 8.65147 6.84158 9.02973C6.09006 9.40799 5.2384 9.53965 4.40774 9.40599C3.57708 9.27233 2.80971 8.88014 2.21479 8.28522C1.61987 7.6903 1.22768 6.92293 1.09402 6.09227C0.960354 5.26161 1.09202 4.40995 1.47028 3.65843C1.84854 2.90691 2.45414 2.2938 3.20094 1.9063C3.94773 1.5188 4.79771 1.37665 5.62995 1.50006C6.47887 1.62594 7.2648 2.02152 7.87164 2.62836C8.47849 3.23521 8.87407 4.02113 8.99995 4.87006Z" stroke="#FBFBFB" stroke-width="2" stroke-linecap="round" stroke-linejoin="round"/>
</svg>
