<svg width="119" height="128" viewBox="0 0 119 128" fill="none" xmlns="http://www.w3.org/2000/svg">
<path d="M0.141602 38.2958C0.141602 17.1456 17.2872 0 38.4374 0H80.5628C101.713 0 118.859 17.1456 118.859 38.2958H0.141602Z" fill="#FBFBFB"/>
<ellipse cx="14.5023" cy="16.8269" rx="2.87219" ry="1.74072" fill="#1F1B1B"/>
<ellipse cx="45.1393" cy="21.4688" rx="2.87219" ry="1.74072" fill="#1F1B1B"/>
<ellipse cx="29.8207" cy="12.185" rx="2.87219" ry="1.74072" fill="#1F1B1B"/>
<ellipse cx="39.3946" cy="4.06164" rx="2.87219" ry="1.74072" fill="#1F1B1B"/>
<ellipse cx="52.7982" cy="12.185" rx="2.87219" ry="1.74072" fill="#1F1B1B"/>
<ellipse cx="66.2015" cy="20.3084" rx="2.87219" ry="1.74072" fill="#1F1B1B"/>
<ellipse cx="56.628" cy="29.5923" rx="2.87219" ry="1.74072" fill="#1F1B1B"/>
<ellipse cx="89.1791" cy="27.2712" rx="2.87219" ry="1.74072" fill="#1F1B1B"/>
<ellipse cx="110.242" cy="27.2712" rx="2.87219" ry="1.74072" fill="#1F1B1B"/>
<ellipse cx="100.668" cy="19.1479" rx="2.87219" ry="1.74072" fill="#1F1B1B"/>
<ellipse cx="91.0939" cy="11.0246" rx="2.87219" ry="1.74072" fill="#1F1B1B"/>
<ellipse cx="68.1163" cy="2.90118" rx="2.87219" ry="1.74072" fill="#1F1B1B"/>
<ellipse cx="68.1163" cy="11.0246" rx="2.87219" ry="1.74072" fill="#1F1B1B"/>
<ellipse cx="83.4349" cy="19.1479" rx="2.87219" ry="1.74072" fill="#1F1B1B"/>
<ellipse cx="24.0765" cy="26.1108" rx="2.87219" ry="1.74072" fill="#1F1B1B"/>
<ellipse cx="3.01354" cy="31.9131" rx="2.87219" ry="1.74072" fill="#1F1B1B"/>
<ellipse cx="35.5653" cy="33.0737" rx="2.87219" ry="1.74072" fill="#1F1B1B"/>
<ellipse cx="68.1163" cy="34.2342" rx="2.87219" ry="1.74072" fill="#1F1B1B"/>
<ellipse cx="100.668" cy="35.3946" rx="2.87219" ry="1.74072" fill="#1F1B1B"/>
<path d="M28.8987 55.3368C28.8987 55.5014 28.8875 55.6211 28.8651 55.6959C28.6482 57.6854 27.7618 59.0879 26.206 59.9032C25.0317 60.5165 23.3787 60.8232 21.247 60.8232C20.9179 60.8232 19.5379 60.7633 17.1071 60.6436C16.6882 60.6212 15.9477 60.5539 14.8856 60.4417C13.9806 60.3445 13.2962 60.2958 12.8324 60.2958C11.89 60.2958 11.1607 60.4791 10.6446 60.8456L10.7232 57.9734C10.9625 57.8537 11.258 57.7939 11.6095 57.7939C12.1406 57.7939 12.7315 57.9472 13.3822 58.2539C12.365 55.2919 11.8302 50.95 11.7778 45.2281C11.7703 44.712 11.5534 44.3717 11.1271 44.2071C10.6932 44.1398 10.1884 44.0313 9.61244 43.8817C9.44789 43.792 9.36561 43.4741 9.36561 42.9281C9.36561 42.5915 9.38805 42.3821 9.43293 42.2998C10.0911 42.5242 11.6506 42.7635 14.1115 43.0178C16.6097 43.2796 18.674 43.4105 20.3046 43.4105C22.1596 43.4105 24.4109 43.3544 27.0587 43.2422C26.6473 44.0126 26.2958 44.8466 26.0041 45.7442C25.7947 46.4996 25.5852 47.2513 25.3758 47.9993C25.2711 48.0068 25.0205 48.0292 24.6241 48.0666C24.31 48.104 24.0631 48.1227 23.8836 48.1227C23.734 48.1227 23.6517 48.0741 23.6368 47.9768C23.577 46.9147 23.4049 46.1668 23.1207 45.733C22.7018 45.0747 21.5313 44.7456 19.609 44.7456C19.4594 44.7456 18.7077 44.7756 17.3539 44.8354C16.9126 45.8676 16.6919 47.1242 16.6919 48.6051C16.6919 48.8744 16.7032 49.2446 16.7256 49.7159C16.748 50.1871 16.7592 50.5199 16.7592 50.7144C17.3501 50.6695 17.8588 50.6246 18.2851 50.5798C19.3173 50.4601 19.8521 50.3442 19.8895 50.232C19.9493 50.0375 19.9792 49.8393 19.9792 49.6373C19.9792 49.3007 19.8596 48.9903 19.6202 48.7061C19.4183 48.5042 19.2163 48.3022 19.0144 48.1003C19.3584 47.9133 19.6838 47.7525 19.9905 47.6178C20.7309 47.3037 21.3331 47.1391 21.7968 47.1242C21.9464 47.4308 22.0212 47.8534 22.0212 48.392C22.0212 48.5565 22.01 48.8033 21.9875 49.1325C21.9651 49.4616 21.9539 49.7046 21.9539 49.8617C21.9539 50.4077 22.1072 51.3277 22.4139 52.6217C22.4438 52.7563 22.4438 52.8424 22.4139 52.8798C22.3914 52.9022 22.3465 52.9097 22.2792 52.9022C21.6509 52.8124 20.5739 52.7376 19.048 52.6778C18.3449 52.6479 17.6456 52.6217 16.95 52.5993C17.0921 55.1872 17.6493 56.9637 18.6217 57.9285C19.4669 58.7737 20.8843 59.1963 22.8739 59.1963C23.5022 59.1963 24.093 59.0729 24.6465 58.8261C25.1327 58.6092 25.3758 58.4184 25.3758 58.2539C25.3758 58.1716 25.2935 58.1305 25.129 58.1305C24.9943 58.1305 24.8148 58.1417 24.5904 58.1641C24.3661 58.1791 24.1753 58.1866 24.0183 58.1866C22.5597 58.1866 21.6023 57.6256 21.1461 56.5037C21.0713 56.3167 21.0339 56.1259 21.0339 55.9315C21.0339 55.348 21.3929 54.8282 22.1109 54.372C22.8739 53.8858 23.9472 53.538 25.3309 53.3285C25.7423 53.2687 26.1013 53.2388 26.408 53.2388C28.0685 53.2388 28.8987 53.9381 28.8987 55.3368ZM46.5245 48.6949L46.2777 51.2193C46.0458 51.2941 45.8364 51.3315 45.6494 51.3315C45.1931 51.3315 44.6733 51.1707 44.0899 50.849C45.3315 53.0481 45.9523 55.4303 45.9523 57.9958C45.9523 58.6241 45.9075 59.2375 45.8177 59.8358C45.4736 62.0723 44.7556 63.628 43.6636 64.5031C42.392 65.5279 40.2229 66.0402 37.1563 66.0402C34.5085 66.0402 32.4927 65.5765 31.109 64.649C30.2862 64.088 29.7514 63.4261 29.5046 62.6631C29.3176 62.0872 29.2241 61.6123 29.2241 61.2383C29.2241 60.1014 30.1665 59.3497 32.0514 58.9832C32.8442 58.8336 33.6184 58.7588 34.3738 58.7588C35.4509 58.7588 36.3223 58.9121 36.988 59.2188C37.6312 59.5254 37.9528 59.9219 37.9528 60.408C37.9528 61.515 37.2124 62.3191 35.7314 62.8202C34.7441 63.1568 34.1607 63.3662 33.9811 63.4485C33.6296 63.6131 33.4538 63.7888 33.4538 63.9758C33.4538 64.2526 34.0447 64.3909 35.2265 64.3909C36.7 64.3909 37.9603 64.1292 39.0075 63.6056C39.8826 63.1718 40.5184 62.1171 40.9148 60.4417C41.1766 59.3197 41.3075 58.108 41.3075 56.8066C41.3075 56.4999 41.2925 56.268 41.2626 56.111C41.0158 56.6944 40.4099 57.1619 39.445 57.5134C38.5849 57.8201 37.635 57.9734 36.5953 57.9734C35.0246 57.9734 33.7829 57.4162 32.8704 56.3017C32.1973 55.4864 31.7634 54.4654 31.569 53.2388C31.3969 52.1842 31.3109 51.4025 31.3109 50.8939C31.3109 49.9216 31.5503 49.2073 32.029 48.751C32.575 48.2199 33.5025 47.9544 34.8114 47.9544C35.4247 47.9544 36.1989 48.0255 37.1338 48.1676C38.7345 48.3994 39.9275 48.8594 40.7128 49.5476C40.7876 49.6074 40.825 49.5887 40.825 49.4915C40.825 49.2671 40.6792 48.6014 40.3875 47.4944C42.0554 48.5042 43.6486 49.009 45.167 49.009C45.7728 49.009 46.2253 48.9043 46.5245 48.6949ZM41.8572 53.8446C41.8572 53.3585 41.3299 52.8648 40.2753 52.3637C39.3328 51.9224 38.368 51.7017 37.3807 51.7017C36.4233 51.7017 35.6304 51.7915 35.0021 51.971C34.2916 52.1729 33.9363 52.4572 33.9363 52.8237C33.9363 53.265 34.4598 53.7025 35.507 54.1363C36.5616 54.5627 37.6686 54.7759 38.828 54.7759C39.7405 54.7759 40.4735 54.6898 41.027 54.5178C41.5805 54.3383 41.8572 54.1139 41.8572 53.8446ZM63.8025 48.6949L63.5557 51.2193C63.3238 51.2941 63.1144 51.3315 62.9274 51.3315C62.4712 51.3315 61.9513 51.1707 61.3679 50.849C62.6095 53.0481 63.2303 55.4303 63.2303 57.9958C63.2303 58.6241 63.1855 59.2375 63.0957 59.8358C62.7516 62.0723 62.0336 63.628 60.9416 64.5031C59.67 65.5279 57.5009 66.0402 54.4343 66.0402C51.7865 66.0402 49.7707 65.5765 48.387 64.649C47.5642 64.088 47.0294 63.4261 46.7826 62.6631C46.5956 62.0872 46.5021 61.6123 46.5021 61.2383C46.5021 60.1014 47.4445 59.3497 49.3294 58.9832C50.1222 58.8336 50.8964 58.7588 51.6518 58.7588C52.7289 58.7588 53.6003 58.9121 54.266 59.2188C54.9092 59.5254 55.2308 59.9219 55.2308 60.408C55.2308 61.515 54.4904 62.3191 53.0094 62.8202C52.0221 63.1568 51.4387 63.3662 51.2592 63.4485C50.9076 63.6131 50.7318 63.7888 50.7318 63.9758C50.7318 64.2526 51.3227 64.3909 52.5045 64.3909C53.978 64.3909 55.2383 64.1292 56.2855 63.6056C57.1606 63.1718 57.7964 62.1171 58.1928 60.4417C58.4546 59.3197 58.5855 58.108 58.5855 56.8066C58.5855 56.4999 58.5705 56.268 58.5406 56.111C58.2938 56.6944 57.6879 57.1619 56.723 57.5134C55.8629 57.8201 54.913 57.9734 53.8733 57.9734C52.3026 57.9734 51.0609 57.4162 50.1484 56.3017C49.4753 55.4864 49.0414 54.4654 48.847 53.2388C48.6749 52.1842 48.5889 51.4025 48.5889 50.8939C48.5889 49.9216 48.8283 49.2073 49.307 48.751C49.853 48.2199 50.7805 47.9544 52.0894 47.9544C52.7027 47.9544 53.4769 48.0255 54.4118 48.1676C56.0125 48.3994 57.2055 48.8594 57.9908 49.5476C58.0656 49.6074 58.103 49.5887 58.103 49.4915C58.103 49.2671 57.9572 48.6014 57.6655 47.4944C59.3334 48.5042 60.9266 49.009 62.445 49.009C63.0508 49.009 63.5033 48.9043 63.8025 48.6949ZM59.1352 53.8446C59.1352 53.3585 58.6079 52.8648 57.5533 52.3637C56.6108 51.9224 55.646 51.7017 54.6587 51.7017C53.7013 51.7017 52.9084 51.7915 52.2801 51.971C51.5696 52.1729 51.2143 52.4572 51.2143 52.8237C51.2143 53.265 51.7378 53.7025 52.785 54.1363C53.8396 54.5627 54.9466 54.7759 56.106 54.7759C57.0185 54.7759 57.7515 54.6898 58.305 54.5178C58.8585 54.3383 59.1352 54.1139 59.1352 53.8446ZM84.1883 49.7944L84.0649 51.1071C83.0626 50.778 82.4755 50.6172 82.3035 50.6246C82.0267 50.6396 81.8023 51.1071 81.6303 52.0271C81.5031 52.7077 81.3498 54.0167 81.1703 55.9539C80.9833 57.9958 80.7776 59.3908 80.5532 60.1388C80.082 61.6871 79.4313 62.7828 78.601 63.4261C77.524 64.2488 75.8448 64.6602 73.5635 64.6602C70.0705 64.6602 67.5536 64.1404 66.0128 63.1007C65.5266 62.7716 65.1115 62.263 64.7674 61.5749C64.4308 60.9092 64.2625 60.2846 64.2625 59.7012C64.2625 58.9383 64.6552 58.3549 65.4406 57.951C66.1811 57.5695 67.1983 57.3788 68.4923 57.3788C69.8237 57.3788 70.9419 57.6256 71.8469 58.1193C72.6697 58.568 73.081 59.0729 73.081 59.6339C73.081 60.7708 72.2845 61.5674 70.6913 62.0236C70.5567 62.061 69.9882 62.177 68.9859 62.3714C68.4399 62.4836 68.1669 62.6108 68.1669 62.7529C68.1669 63.0745 68.9934 63.2353 70.6464 63.2353C71.888 63.2353 72.7706 63.097 73.2942 62.8202C74.1693 62.3565 74.85 61.616 75.3362 60.5988C75.6877 59.8732 75.8635 59.2599 75.8635 58.7588C75.841 58.5793 74.5658 57.5134 72.0376 55.5612C69.4497 53.5567 67.7406 52.3375 66.9103 51.9037C66.6261 51.9037 65.7809 52.2814 64.3747 53.0368C64.255 53.1042 64.1952 53.0742 64.1952 52.9471C64.1952 52.6329 64.199 52.2253 64.2064 51.7242C64.2139 51.223 64.2177 50.8939 64.2177 50.7368V50.0973C67.935 49.4915 70.7848 48.665 72.7669 47.6178C72.9539 47.9544 73.2456 48.4593 73.642 49.1325C73.268 49.2297 72.6397 49.3419 71.7571 49.469C71.7571 50.2768 72.4864 51.3876 73.9449 52.8012C75.1791 53.9905 76.2262 54.802 77.0864 55.2359C77.4978 54.6225 78.0288 53.6053 78.6796 52.1842C79.3153 50.7929 79.6332 49.9664 79.6332 49.7046C78.0625 49.7121 76.9218 49.6972 76.2113 49.6598C76.3235 49.1886 76.5292 48.4294 76.8283 47.3822C79.0124 47.4645 81.4657 48.2686 84.1883 49.7944ZM90.6507 44.2071C90.6507 44.7232 90.5049 45.3066 90.2132 45.9573C89.9215 46.6081 89.6335 47.0232 89.3493 47.2027C88.9304 47.3373 88.6238 47.4047 88.4293 47.4047C88.3021 47.4047 88.2386 47.3598 88.2386 47.27C88.2386 47.2401 88.2872 47.1466 88.3844 46.9895C88.6238 46.5707 88.7434 46.2341 88.7434 45.9798C88.7434 45.6432 88.4929 45.4749 87.9917 45.4749C87.8197 45.4749 87.5205 45.5048 87.0942 45.5647C86.8773 45.5946 86.7239 45.6095 86.6342 45.6095C86.0358 45.6095 85.5272 45.4188 85.1083 45.0373C84.6969 44.6484 84.4912 44.1585 84.4912 43.5676C84.4912 43.0665 84.7942 42.6663 85.4 42.3671C85.961 42.0829 86.6641 41.9408 87.5093 41.9408C88.4966 41.9408 89.2745 42.1539 89.8429 42.5803C90.3815 42.9917 90.6507 43.5339 90.6507 44.2071ZM108.209 56.2344C108.209 56.5411 108.187 56.844 108.142 57.1432C107.925 58.5718 106.867 59.6825 104.967 60.4753C103.209 61.2158 100.991 61.5861 98.3136 61.5861C96.4811 61.5861 94.9852 61.3318 93.8259 60.8232C92.8311 60.3893 92.2252 59.8545 92.0083 59.2188C91.8587 58.7625 91.7839 58.3773 91.7839 58.0632C91.7839 56.9786 92.8161 56.298 94.8805 56.0212C95.5761 55.9315 96.2193 55.8866 96.8102 55.8866C97.8873 55.8866 98.74 56.0212 99.3683 56.2905C99.9966 56.5598 100.311 56.93 100.311 57.4012C100.311 57.8949 100.083 58.3324 99.6263 58.7139C99.0579 59.1926 98.1977 59.5142 97.0458 59.6788C96.3577 59.776 96.0137 59.9219 96.0137 60.1163C96.0137 60.3258 96.6195 60.4305 97.8312 60.4305C98.3024 60.4305 98.7213 60.408 99.0878 60.3632C100.142 60.236 100.917 60.0527 101.41 59.8134C102.158 59.4619 102.517 58.9345 102.487 58.2315C102.39 55.9502 101.264 54.8095 99.1102 54.8095C98.8933 54.8095 98.452 54.8357 97.7863 54.888C97.1281 54.9404 96.6606 54.9666 96.3839 54.9666C94.125 54.9666 92.9956 54.1924 92.9956 52.6442C92.9956 52.2776 93.0293 51.9485 93.0966 51.6568C93.3434 50.4676 94.0203 49.5177 95.1273 48.8071C96.3989 47.9918 98.1192 47.5842 100.288 47.5842C102.39 47.5842 103.942 47.7749 104.944 48.1564C105.819 48.4855 106.403 49.0165 106.695 49.7495C106.882 50.2058 106.975 50.5648 106.975 50.8266C106.975 51.6718 106.078 52.1542 104.282 52.2739C103.946 52.2889 103.579 52.2963 103.183 52.2963C100.804 52.2963 99.6151 51.885 99.6151 51.0622C99.6151 50.3442 100.03 49.8056 100.86 49.4466C100.965 49.4017 101.586 49.2409 102.723 48.9642C102.858 48.9342 102.925 48.8819 102.925 48.8071C102.925 48.5453 102.345 48.4144 101.186 48.4144C98.9793 48.4144 97.8761 49.0726 97.8761 50.389C97.8761 50.6957 97.9359 51.0248 98.0556 51.3764C98.3323 52.1692 98.7662 52.7227 99.3571 53.0368C99.8432 53.2986 100.513 53.4295 101.365 53.4295C101.657 53.4295 102.128 53.4108 102.779 53.3734C103.43 53.3285 103.916 53.3061 104.238 53.3061C105.494 53.3061 106.437 53.4968 107.065 53.8783C107.828 54.3346 108.209 55.1199 108.209 56.2344ZM28.6631 78.8871C28.6631 79.7248 28.4799 80.6074 28.1134 81.5349C26.8792 84.624 24.856 86.1685 22.0436 86.1685C20.8918 86.1685 19.8222 85.9067 18.8349 85.3832C18.2814 85.084 17.6119 84.5978 16.8266 83.9246C17.3202 86.2807 18.2253 88.7453 19.5417 91.3183C16.475 91.9316 13.341 92.5898 10.1398 93.2929C10.065 93.0236 10.0276 92.7319 10.0276 92.4178C10.0276 92.0288 10.0986 91.8082 10.2407 91.7558C10.51 91.681 10.9064 91.5576 11.43 91.3856C11.991 91.1762 12.2715 90.8358 12.2715 90.3646C12.2715 90.2973 12.2677 90.2262 12.2602 90.1515C11.8264 86.8604 11.6095 84.2163 11.6095 82.2193C11.6095 80.1175 11.8115 78.0793 12.2154 76.1047C11.7292 76.2767 11.2767 76.3627 10.8578 76.3627C10.3193 76.3627 9.86675 76.2468 9.50024 76.0149L9.70219 73.1876C11.7965 74.2422 13.9058 74.7695 16.03 74.7695C16.7032 74.7695 17.7877 74.6947 19.2836 74.5452C20.787 74.3956 21.9239 74.3208 22.6944 74.3208C24.7513 74.3208 26.2921 74.777 27.3168 75.6895C28.2143 76.4824 28.6631 77.5482 28.6631 78.8871ZM26.0939 79.4368C26.0939 78.8759 25.6413 78.4308 24.7363 78.1017C23.8612 77.7801 22.7056 77.6193 21.2695 77.6193C19.6913 77.6193 18.2664 77.9185 16.9949 78.5168C15.7682 79.0853 15.1549 79.6912 15.1549 80.3344C15.1549 80.7383 15.6971 81.0936 16.7817 81.4003C17.7765 81.6845 18.8124 81.8266 19.8895 81.8266C21.3256 81.8266 22.7018 81.5872 24.0183 81.1085C25.402 80.6074 26.0939 80.0502 26.0939 79.4368ZM37.3021 92.0363C36.3073 91.6025 35.32 91.3856 34.3402 91.3856C33.0312 91.3856 31.6512 91.7371 30.2002 92.4402C30.0955 92.4926 30.0282 92.5113 29.9982 92.4963C29.9608 92.4739 29.9571 92.4028 29.987 92.2832C30.9743 88.304 31.468 85.0428 31.468 82.4998C31.468 80.2783 31.1838 78.1466 30.6153 76.1047C30.5256 75.798 30.3161 75.5811 29.987 75.4539C29.7327 75.3642 29.2989 75.2969 28.6856 75.252C28.4013 74.9977 28.2854 74.3881 28.3378 73.4232C28.3826 73.4382 28.5135 73.4456 28.7304 73.4456C29.8374 73.4456 32.2795 73.2362 36.0568 72.8174C36.5654 74.5975 36.8197 76.5759 36.8197 78.7525C36.8197 82.7616 36.068 86.2546 34.5646 89.2315C35.1031 88.9697 35.6454 88.8388 36.1914 88.8388C36.6252 88.8388 36.9955 88.9061 37.3021 89.0407V92.0363ZM57.4747 91.3632C57.1232 91.1163 56.551 90.9929 55.7582 90.9929C54.8008 90.9929 53.72 91.15 52.5157 91.4641C51.3115 91.7783 50.3691 92.1448 49.6884 92.5636C49.9502 91.3071 50.0811 90.4693 50.0811 90.0505C50.0811 89.9233 50.0587 89.8635 50.0138 89.871C49.9839 89.8784 49.9353 89.9084 49.8679 89.9607C48.6114 90.9929 47.1117 91.6212 45.3689 91.8456C44.5387 91.9503 43.8356 92.0027 43.2597 92.0027C41.5543 92.0027 40.3314 91.6399 39.5909 90.9144C38.9252 90.2636 38.5924 89.2651 38.5924 87.9188C38.5924 87.2157 38.6597 86.4415 38.7943 85.5963C39.0711 83.9209 39.6694 82.5372 40.5894 81.4451C41.6964 80.1512 43.1138 79.5042 44.8416 79.5042C46.7115 79.5042 48.5328 80.3643 50.3055 82.0846C50.3055 81.7107 50.2008 81.1833 49.9913 80.5027C49.7595 79.7772 49.4977 79.1863 49.206 78.73C52.886 78.169 55.4291 77.6305 56.8352 77.1144C56.9699 77.5856 57.0372 78.0606 57.0372 78.5393C57.0372 78.9282 56.9923 79.1676 56.9025 79.2573C55.803 79.6313 55.2533 79.9679 55.2533 80.2671V80.2895C55.2533 80.5364 55.2645 80.9253 55.2869 81.4564C55.3094 81.9874 55.3206 82.395 55.3206 82.6793C55.3206 85.0802 55.0139 87.0624 54.4006 88.6256C54.8943 88.3189 55.4814 88.1656 56.1621 88.1656C56.5211 88.1656 56.8539 88.2067 57.1606 88.289L57.4747 91.3632ZM50.9562 85.0915C50.9562 84.7773 50.6421 84.5155 50.0138 84.3061C49.3481 84.0817 48.4805 83.9695 47.4109 83.9695C46.0122 83.9695 44.6658 84.2313 43.3719 84.7549C42.1153 85.271 41.487 85.7908 41.487 86.3144C41.487 86.7332 41.932 87.0698 42.8221 87.3241C43.6224 87.5485 44.5723 87.6607 45.6718 87.6607C46.921 87.6607 48.1289 87.3615 49.2957 86.7632C50.4027 86.1872 50.9562 85.63 50.9562 85.0915ZM74.2254 83.2963C74.2254 85.0167 72.924 85.8768 70.321 85.8768C69.0196 85.8768 67.9425 85.645 67.0898 85.1812C66.2895 84.7474 65.8894 84.235 65.8894 83.6442C65.8894 82.7092 66.3793 81.9724 67.3591 81.4339C68.2193 80.9627 69.2515 80.7271 70.4557 80.7271C70.5305 80.7271 70.5679 80.7121 70.5679 80.6822C70.5679 80.57 70.2911 80.4242 69.7376 80.2446C69.0944 80.0277 68.4324 79.9193 67.7518 79.9193C64.73 79.9193 63.2191 81.2768 63.2191 83.992C63.2191 84.2837 63.2416 84.6277 63.2864 85.0241C63.5108 86.9165 63.9147 88.218 64.4981 88.9285C64.932 89.4521 65.5565 89.7139 66.3718 89.7139C67.6359 89.7139 68.8214 89.4633 69.9284 88.9622C70.9157 88.5209 71.7048 87.9524 72.2957 87.2568C72.3331 87.2493 72.363 87.2718 72.3854 87.3241C71.6898 90.2636 69.9583 91.9166 67.1908 92.2832C66.4952 92.3729 65.7846 92.4178 65.0591 92.4178C60.2048 92.4178 57.7777 90.1589 57.7777 85.6412C57.7777 83.4422 58.376 81.8154 59.5728 80.7607C60.7022 79.766 62.531 79.1414 65.0591 78.8871C65.6724 78.8273 66.2708 78.7973 66.8542 78.7973C68.9635 78.7973 70.7137 79.1713 72.1049 79.9193C73.3391 80.585 74.0235 81.3741 74.1581 82.2866C74.203 82.6007 74.2254 82.9373 74.2254 83.2963ZM90.5946 84.3622C90.5946 84.7437 90.5797 85.1924 90.5498 85.7085C90.5498 85.7983 90.5124 85.832 90.4376 85.8095C89.166 85.5253 87.083 85.1476 84.1883 84.6763C81.6153 84.265 80.269 84.0593 80.1493 84.0593C79.9773 84.0593 79.8913 84.7624 79.8913 86.1685C79.8913 87.9412 80.2802 89.2651 81.0581 90.1402C81.649 90.8059 82.4082 91.1612 83.3356 91.2061C83.8592 91.2285 84.3417 91.15 84.783 90.9705C84.955 90.9032 85.041 90.8358 85.041 90.7685C85.041 90.7236 84.9961 90.6862 84.9064 90.6563C83.9265 90.4768 83.1262 90.1141 82.5054 89.568C81.8846 89.0145 81.5742 88.3563 81.5742 87.5934C81.5742 87.1147 81.8435 86.7295 82.382 86.4378C82.928 86.1386 83.6685 85.989 84.6034 85.989C85.2467 85.989 85.9273 86.0563 86.6454 86.191C88.5751 86.565 89.54 87.3391 89.54 88.5134C89.54 88.8425 89.4503 89.1791 89.2707 89.5232C88.7696 90.4656 88.1488 91.1388 87.4083 91.5427C86.3312 92.1261 84.6932 92.4178 82.4942 92.4178C79.9661 92.4178 77.9466 91.4828 76.4357 89.6129C75.1417 88.0197 74.4947 86.2209 74.4947 84.2163C74.4947 80.5139 77.5202 78.6627 83.5713 78.6627C87.0792 78.6627 89.2371 79.5416 90.0449 81.2993C90.4114 82.0996 90.5946 83.1206 90.5946 84.3622ZM86.2976 81.7817C86.2976 81.3629 86.0246 81.0225 85.4786 80.7607C84.9326 80.4915 84.2108 80.3568 83.3132 80.3568C82.2661 80.3568 81.3573 80.4541 80.5869 80.6486C79.6818 80.8729 79.2293 81.1759 79.2293 81.5573C79.2293 82.5222 80.7739 83.0046 83.863 83.0046C85.486 83.0046 86.2976 82.597 86.2976 81.7817Z" fill="#FBFBFB"/>
<path d="M118.859 100.296C118.859 115.505 106.529 127.834 91.3201 127.834H27.6802C12.471 127.834 0.141586 115.505 0.141586 100.296H118.859Z" fill="#FBFBFB"/>
<ellipse cx="104.498" cy="115.734" rx="2.87219" ry="1.25175" transform="rotate(180 104.498 115.734)" fill="#1F1B1B"/>
<ellipse cx="73.8607" cy="112.396" rx="2.87219" ry="1.25175" transform="rotate(180 73.8607 112.396)" fill="#1F1B1B"/>
<ellipse cx="89.1793" cy="119.072" rx="2.87219" ry="1.25175" transform="rotate(180 89.1793 119.072)" fill="#1F1B1B"/>
<ellipse cx="79.6054" cy="124.914" rx="2.87219" ry="1.25175" transform="rotate(180 79.6054 124.914)" fill="#1F1B1B"/>
<ellipse cx="66.2018" cy="119.072" rx="2.87219" ry="1.25175" transform="rotate(180 66.2018 119.072)" fill="#1F1B1B"/>
<ellipse cx="52.7985" cy="113.231" rx="2.87219" ry="1.25175" transform="rotate(180 52.7985 113.231)" fill="#1F1B1B"/>
<ellipse cx="62.372" cy="106.555" rx="2.87219" ry="1.25175" transform="rotate(180 62.372 106.555)" fill="#1F1B1B"/>
<ellipse cx="29.8209" cy="108.224" rx="2.87219" ry="1.25175" transform="rotate(180 29.8209 108.224)" fill="#1F1B1B"/>
<ellipse cx="8.75794" cy="108.224" rx="2.87219" ry="1.25175" transform="rotate(180 8.75794 108.224)" fill="#1F1B1B"/>
<ellipse cx="18.3322" cy="114.065" rx="2.87219" ry="1.25175" transform="rotate(180 18.3322 114.065)" fill="#1F1B1B"/>
<ellipse cx="27.9061" cy="119.907" rx="2.87219" ry="1.25175" transform="rotate(180 27.9061 119.907)" fill="#1F1B1B"/>
<ellipse cx="50.8837" cy="125.748" rx="2.87219" ry="1.25175" transform="rotate(180 50.8837 125.748)" fill="#1F1B1B"/>
<ellipse cx="50.8837" cy="119.907" rx="2.87219" ry="1.25175" transform="rotate(180 50.8837 119.907)" fill="#1F1B1B"/>
<ellipse cx="35.5651" cy="114.065" rx="2.87219" ry="1.25175" transform="rotate(180 35.5651 114.065)" fill="#1F1B1B"/>
<ellipse cx="94.9235" cy="109.058" rx="2.87219" ry="1.25175" transform="rotate(180 94.9235 109.058)" fill="#1F1B1B"/>
<ellipse cx="115.986" cy="104.886" rx="2.87219" ry="1.25175" transform="rotate(180 115.986 104.886)" fill="#1F1B1B"/>
<ellipse cx="83.4347" cy="104.051" rx="2.87219" ry="1.25175" transform="rotate(180 83.4347 104.051)" fill="#1F1B1B"/>
<ellipse cx="50.8837" cy="103.217" rx="2.87219" ry="1.25175" transform="rotate(180 50.8837 103.217)" fill="#1F1B1B"/>
<ellipse cx="18.3322" cy="102.382" rx="2.87219" ry="1.25175" transform="rotate(180 18.3322 102.382)" fill="#1F1B1B"/>
</svg>
