<svg width="49" height="54" viewBox="0 0 49 54" fill="none" xmlns="http://www.w3.org/2000/svg">
<path d="M0 15.8065C0 7.07679 7.07679 0 15.8065 0H33.1935C41.9232 0 49 7.07679 49 15.8065H0Z" fill="#FBFBFB"/>
<ellipse cx="5.92743" cy="6.94525" rx="1.18548" ry="0.718475" fill="#1F1B1B"/>
<ellipse cx="18.5727" cy="8.86118" rx="1.18548" ry="0.718475" fill="#1F1B1B"/>
<ellipse cx="12.2499" cy="5.0293" rx="1.18548" ry="0.718475" fill="#1F1B1B"/>
<ellipse cx="16.2016" cy="1.67642" rx="1.18548" ry="0.718475" fill="#1F1B1B"/>
<ellipse cx="21.7338" cy="5.0293" rx="1.18548" ry="0.718475" fill="#1F1B1B"/>
<ellipse cx="27.2661" cy="8.3822" rx="1.18548" ry="0.718475" fill="#1F1B1B"/>
<ellipse cx="23.3146" cy="12.2141" rx="1.18548" ry="0.718475" fill="#1F1B1B"/>
<ellipse cx="36.7499" cy="11.2561" rx="1.18548" ry="0.718475" fill="#1F1B1B"/>
<ellipse cx="45.4435" cy="11.2561" rx="1.18548" ry="0.718475" fill="#1F1B1B"/>
<ellipse cx="41.4919" cy="7.9032" rx="1.18548" ry="0.718475" fill="#1F1B1B"/>
<ellipse cx="37.5402" cy="4.55035" rx="1.18548" ry="0.718475" fill="#1F1B1B"/>
<ellipse cx="28.0563" cy="1.19745" rx="1.18548" ry="0.718475" fill="#1F1B1B"/>
<ellipse cx="28.0563" cy="4.55035" rx="1.18548" ry="0.718475" fill="#1F1B1B"/>
<ellipse cx="34.3791" cy="7.9032" rx="1.18548" ry="0.718475" fill="#1F1B1B"/>
<ellipse cx="9.87909" cy="10.7771" rx="1.18548" ry="0.718475" fill="#1F1B1B"/>
<ellipse cx="1.18548" cy="13.172" rx="1.18548" ry="0.718475" fill="#1F1B1B"/>
<ellipse cx="14.621" cy="13.651" rx="1.18548" ry="0.718475" fill="#1F1B1B"/>
<ellipse cx="28.0563" cy="14.13" rx="1.18548" ry="0.718475" fill="#1F1B1B"/>
<ellipse cx="41.4919" cy="14.609" rx="1.18548" ry="0.718475" fill="#1F1B1B"/>
<path d="M11.5066 22.7596C11.5066 22.8276 11.502 22.877 11.4928 22.9078C11.4032 23.729 11.0374 24.3079 10.3953 24.6444C9.91057 24.8975 9.2283 25.0241 8.34844 25.0241C8.21261 25.0241 7.64302 24.9994 6.63968 24.95C6.4668 24.9408 6.16116 24.913 5.72278 24.8667C5.34923 24.8265 5.06675 24.8065 4.87535 24.8065C4.48636 24.8065 4.18536 24.8821 3.97234 25.0334L4.00476 23.8479C4.10355 23.7985 4.22549 23.7738 4.37059 23.7738C4.58978 23.7738 4.83367 23.8371 5.10226 23.9637C4.6824 22.7411 4.46166 20.949 4.44005 18.5873C4.43696 18.3743 4.34744 18.2338 4.17147 18.1659C3.99241 18.1381 3.78402 18.0933 3.54631 18.0316C3.47839 17.9946 3.44443 17.8633 3.44443 17.638C3.44443 17.4991 3.45369 17.4126 3.47222 17.3787C3.74389 17.4713 4.38757 17.5701 5.40326 17.675C6.43438 17.7831 7.28645 17.8371 7.95946 17.8371C8.72508 17.8371 9.65433 17.814 10.7472 17.7676C10.5774 18.0856 10.4323 18.4299 10.3119 18.8003C10.2255 19.1121 10.139 19.4224 10.0526 19.7311C10.0094 19.7342 9.90594 19.7435 9.74231 19.7589C9.61265 19.7743 9.51077 19.782 9.43668 19.782C9.37494 19.782 9.34098 19.762 9.3348 19.7218C9.31011 19.2835 9.2391 18.9747 9.12179 18.7957C8.9489 18.524 8.46576 18.3882 7.67235 18.3882C7.6106 18.3882 7.30034 18.4005 6.74156 18.4252C6.55941 18.8513 6.46834 19.3699 6.46834 19.9812C6.46834 20.0923 6.47297 20.2451 6.48223 20.4396C6.49149 20.6341 6.49613 20.7715 6.49613 20.8518C6.74001 20.8332 6.94994 20.8147 7.12591 20.7962C7.55195 20.7468 7.77268 20.6989 7.78812 20.6526C7.81282 20.5724 7.82516 20.4906 7.82516 20.4072C7.82516 20.2683 7.77577 20.1402 7.67698 20.0228C7.59362 19.9395 7.51027 19.8561 7.42692 19.7728C7.56893 19.6956 7.70322 19.6292 7.82979 19.5737C8.13543 19.444 8.38395 19.3761 8.57535 19.3699C8.6371 19.4965 8.66797 19.6709 8.66797 19.8932C8.66797 19.9611 8.66334 20.063 8.65408 20.1988C8.64482 20.3347 8.64018 20.435 8.64018 20.4998C8.64018 20.7252 8.70347 21.1049 8.83005 21.639C8.8424 21.6946 8.8424 21.7301 8.83005 21.7455C8.82079 21.7548 8.80226 21.7578 8.77448 21.7548C8.51515 21.7177 8.0706 21.6868 7.44081 21.6621C7.15061 21.6498 6.86196 21.639 6.57485 21.6297C6.63351 22.6979 6.8635 23.4311 7.26484 23.8294C7.61369 24.1782 8.19871 24.3526 9.01991 24.3526C9.27923 24.3526 9.52312 24.3017 9.75158 24.1998C9.95224 24.1103 10.0526 24.0316 10.0526 23.9637C10.0526 23.9297 10.0186 23.9127 9.9507 23.9127C9.89513 23.9127 9.82104 23.9173 9.72842 23.9266C9.63581 23.9328 9.55708 23.9359 9.49225 23.9359C8.89025 23.9359 8.49509 23.7043 8.30677 23.2412C8.27589 23.1641 8.26046 23.0853 8.26046 23.0051C8.26046 22.7643 8.40864 22.5497 8.70502 22.3614C9.01991 22.1607 9.46292 22.0172 10.0341 21.9307C10.2038 21.906 10.352 21.8937 10.4786 21.8937C11.164 21.8937 11.5066 22.1823 11.5066 22.7596ZM18.7816 20.0182L18.6798 21.0601C18.584 21.091 18.4976 21.1065 18.4204 21.1065C18.2321 21.1065 18.0175 21.0401 17.7767 20.9073C18.2892 21.815 18.5455 22.7982 18.5455 23.8571C18.5455 24.1165 18.5269 24.3696 18.4899 24.6166C18.3479 25.5397 18.0515 26.1818 17.6008 26.543C17.076 26.966 16.1807 27.1774 14.9149 27.1774C13.822 27.1774 12.99 26.986 12.4189 26.6032C12.0793 26.3717 11.8586 26.0984 11.7567 25.7836C11.6795 25.5458 11.6409 25.3498 11.6409 25.1954C11.6409 24.7262 12.0299 24.4159 12.8079 24.2647C13.1351 24.2029 13.4547 24.172 13.7665 24.172C14.211 24.172 14.5707 24.2353 14.8455 24.3619C15.111 24.4885 15.2437 24.6521 15.2437 24.8528C15.2437 25.3097 14.9381 25.6415 14.3268 25.8484C13.9193 25.9873 13.6785 26.0738 13.6044 26.1077C13.4593 26.1756 13.3868 26.2482 13.3868 26.3254C13.3868 26.4396 13.6306 26.4967 14.1184 26.4967C14.7266 26.4967 15.2468 26.3886 15.679 26.1725C16.0402 25.9935 16.3026 25.5582 16.4662 24.8667C16.5743 24.4036 16.6283 23.9035 16.6283 23.3663C16.6283 23.2397 16.6221 23.144 16.6098 23.0792C16.5079 23.32 16.2578 23.5129 15.8596 23.658C15.5046 23.7846 15.1125 23.8479 14.6834 23.8479C14.0351 23.8479 13.5226 23.6179 13.1459 23.1579C12.8681 22.8214 12.689 22.4 12.6088 21.8937C12.5378 21.4584 12.5023 21.1358 12.5023 20.9258C12.5023 20.5245 12.6011 20.2297 12.7986 20.0414C13.024 19.8222 13.4068 19.7126 13.9471 19.7126C14.2002 19.7126 14.5198 19.7419 14.9057 19.8006C15.5663 19.8963 16.0587 20.0861 16.3829 20.3702C16.4137 20.3949 16.4292 20.3871 16.4292 20.347C16.4292 20.2544 16.369 19.9796 16.2486 19.5227C16.937 19.9395 17.5946 20.1479 18.2213 20.1479C18.4714 20.1479 18.6581 20.1047 18.7816 20.0182ZM16.8552 22.1437C16.8552 21.9431 16.6376 21.7393 16.2023 21.5325C15.8133 21.3503 15.415 21.2593 15.0075 21.2593C14.6124 21.2593 14.2851 21.2963 14.0258 21.3704C13.7325 21.4538 13.5859 21.5711 13.5859 21.7223C13.5859 21.9045 13.802 22.0851 14.2342 22.2642C14.6695 22.4401 15.1264 22.5281 15.6049 22.5281C15.9815 22.5281 16.2841 22.4926 16.5125 22.4216C16.741 22.3475 16.8552 22.2549 16.8552 22.1437ZM25.9131 20.0182L25.8112 21.0601C25.7155 21.091 25.629 21.1065 25.5519 21.1065C25.3635 21.1065 25.149 21.0401 24.9082 20.9073C25.4206 21.815 25.6769 22.7982 25.6769 23.8571C25.6769 24.1165 25.6584 24.3696 25.6213 24.6166C25.4793 25.5397 25.1829 26.1818 24.7322 26.543C24.2074 26.966 23.3121 27.1774 22.0463 27.1774C20.9535 27.1774 20.1215 26.986 19.5503 26.6032C19.2107 26.3717 18.99 26.0984 18.8881 25.7836C18.811 25.5458 18.7724 25.3498 18.7724 25.1954C18.7724 24.7262 19.1614 24.4159 19.9393 24.2647C20.2666 24.2029 20.5861 24.172 20.8979 24.172C21.3425 24.172 21.7021 24.2353 21.9769 24.3619C22.2424 24.4885 22.3751 24.6521 22.3751 24.8528C22.3751 25.3097 22.0695 25.6415 21.4582 25.8484C21.0507 25.9873 20.8099 26.0738 20.7358 26.1077C20.5907 26.1756 20.5182 26.2482 20.5182 26.3254C20.5182 26.4396 20.7621 26.4967 21.2498 26.4967C21.858 26.4967 22.3782 26.3886 22.8104 26.1725C23.1716 25.9935 23.434 25.5582 23.5977 24.8667C23.7057 24.4036 23.7597 23.9035 23.7597 23.3663C23.7597 23.2397 23.7536 23.144 23.7412 23.0792C23.6393 23.32 23.3893 23.5129 22.991 23.658C22.636 23.7846 22.2439 23.8479 21.8148 23.8479C21.1665 23.8479 20.654 23.6179 20.2774 23.1579C19.9995 22.8214 19.8205 22.4 19.7402 21.8937C19.6692 21.4584 19.6337 21.1358 19.6337 20.9258C19.6337 20.5245 19.7325 20.2297 19.9301 20.0414C20.1554 19.8222 20.5382 19.7126 21.0785 19.7126C21.3317 19.7126 21.6512 19.7419 22.0371 19.8006C22.6977 19.8963 23.1901 20.0861 23.5143 20.3702C23.5452 20.3949 23.5606 20.3871 23.5606 20.347C23.5606 20.2544 23.5004 19.9796 23.38 19.5227C24.0685 19.9395 24.726 20.1479 25.3527 20.1479C25.6028 20.1479 25.7896 20.1047 25.9131 20.0182ZM23.9866 22.1437C23.9866 21.9431 23.769 21.7393 23.3337 21.5325C22.9447 21.3503 22.5465 21.2593 22.139 21.2593C21.7438 21.2593 21.4166 21.2963 21.1572 21.3704C20.8639 21.4538 20.7173 21.5711 20.7173 21.7223C20.7173 21.9045 20.9334 22.0851 21.3656 22.2642C21.8009 22.4401 22.2578 22.5281 22.7363 22.5281C23.113 22.5281 23.4155 22.4926 23.644 22.4216C23.8724 22.3475 23.9866 22.2549 23.9866 22.1437ZM34.3272 20.472L34.2763 21.0138C33.8626 20.878 33.6202 20.8116 33.5492 20.8147C33.435 20.8209 33.3424 21.0138 33.2714 21.3936C33.2189 21.6745 33.1556 22.2148 33.0815 23.0143C33.0043 23.8571 32.9194 24.4329 32.8268 24.7416C32.6323 25.3807 32.3638 25.833 32.0211 26.0984C31.5765 26.438 30.8834 26.6078 29.9418 26.6078C28.5001 26.6078 27.4613 26.3933 26.8253 25.9642C26.6247 25.8283 26.4533 25.6184 26.3113 25.3344C26.1724 25.0596 26.1029 24.8018 26.1029 24.561C26.1029 24.2461 26.265 24.0053 26.5892 23.8386C26.8948 23.6812 27.3146 23.6025 27.8487 23.6025C28.3982 23.6025 28.8598 23.7043 29.2333 23.9081C29.5729 24.0933 29.7427 24.3017 29.7427 24.5332C29.7427 25.0025 29.4139 25.3313 28.7564 25.5196C28.7008 25.535 28.4662 25.5829 28.0525 25.6632C27.8271 25.7095 27.7144 25.7619 27.7144 25.8206C27.7144 25.9534 28.0556 26.0197 28.7378 26.0197C29.2503 26.0197 29.6146 25.9626 29.8307 25.8484C30.1919 25.657 30.4728 25.3513 30.6735 24.9315C30.8186 24.632 30.8912 24.3789 30.8912 24.172C30.8819 24.0979 30.3555 23.658 29.3121 22.8523C28.2439 22.0249 27.5385 21.5217 27.1958 21.3426C27.0785 21.3426 26.7296 21.4985 26.1492 21.8103C26.0998 21.8381 26.0751 21.8258 26.0751 21.7733C26.0751 21.6436 26.0767 21.4754 26.0798 21.2685C26.0829 21.0617 26.0844 20.9258 26.0844 20.861V20.5971C27.6187 20.347 28.795 20.0059 29.6131 19.5737C29.6902 19.7126 29.8106 19.921 29.9743 20.1988C29.8199 20.2389 29.5606 20.2853 29.1963 20.3377C29.1963 20.6712 29.4973 21.1296 30.0993 21.7131C30.6087 22.2039 31.0409 22.5389 31.3959 22.718C31.5657 22.4648 31.7849 22.045 32.0535 21.4584C32.3159 20.8842 32.4471 20.543 32.4471 20.435C31.7988 20.4381 31.328 20.4319 31.0347 20.4165C31.081 20.222 31.1659 19.9086 31.2894 19.4764C32.1909 19.5104 33.2035 19.8422 34.3272 20.472ZM36.9946 18.1659C36.9946 18.3789 36.9344 18.6197 36.814 18.8883C36.6936 19.1569 36.5747 19.3282 36.4574 19.4023C36.2845 19.4579 36.1579 19.4857 36.0777 19.4857C36.0252 19.4857 35.9989 19.4671 35.9989 19.4301C35.9989 19.4178 36.019 19.3792 36.0591 19.3143C36.1579 19.1414 36.2073 19.0025 36.2073 18.8976C36.2073 18.7586 36.1039 18.6892 35.8971 18.6892C35.826 18.6892 35.7026 18.7015 35.5266 18.7262C35.4371 18.7386 35.3738 18.7447 35.3367 18.7447C35.0898 18.7447 34.8798 18.666 34.7069 18.5086C34.5371 18.348 34.4522 18.1458 34.4522 17.9019C34.4522 17.6951 34.5773 17.5299 34.8273 17.4064C35.0589 17.2891 35.3491 17.2305 35.6979 17.2305C36.1054 17.2305 36.4265 17.3185 36.6611 17.4944C36.8834 17.6642 36.9946 17.888 36.9946 18.1659ZM44.2417 23.1301C44.2417 23.2567 44.2325 23.3817 44.214 23.5052C44.1244 24.0949 43.6876 24.5533 42.9034 24.8806C42.178 25.1862 41.2626 25.339 40.1574 25.339C39.401 25.339 38.7836 25.234 38.3051 25.0241C37.8945 24.845 37.6444 24.6243 37.5549 24.3619C37.4931 24.1736 37.4623 24.0146 37.4623 23.8849C37.4623 23.4373 37.8883 23.1564 38.7404 23.0421C39.0275 23.0051 39.293 22.9866 39.5369 22.9866C39.9814 22.9866 40.3334 23.0421 40.5927 23.1533C40.852 23.2644 40.9817 23.4172 40.9817 23.6117C40.9817 23.8155 40.8875 23.9961 40.6992 24.1535C40.4646 24.3511 40.1095 24.4838 39.6341 24.5518C39.3501 24.5919 39.2081 24.6521 39.2081 24.7324C39.2081 24.8188 39.4581 24.862 39.9583 24.862C40.1528 24.862 40.3256 24.8528 40.4769 24.8342C40.9122 24.7818 41.2317 24.7061 41.4355 24.6073C41.7442 24.4622 41.8924 24.2446 41.88 23.9544C41.8399 23.0128 41.3753 22.542 40.4862 22.542C40.3966 22.542 40.2145 22.5528 39.9397 22.5744C39.6681 22.596 39.4751 22.6068 39.3609 22.6068C38.4286 22.6068 37.9624 22.2873 37.9624 21.6483C37.9624 21.497 37.9763 21.3611 38.0041 21.2407C38.1059 20.7499 38.3853 20.3578 38.8422 20.0645C39.3671 19.728 40.0771 19.5598 40.9724 19.5598C41.8399 19.5598 42.4805 19.6385 42.8942 19.7959C43.2554 19.9318 43.4962 20.151 43.6166 20.4535C43.6938 20.6418 43.7324 20.79 43.7324 20.8981C43.7324 21.2469 43.3619 21.446 42.621 21.4954C42.482 21.5016 42.3308 21.5047 42.1672 21.5047C41.1854 21.5047 40.6946 21.3349 40.6946 20.9953C40.6946 20.6989 40.8659 20.4767 41.2086 20.3285C41.2518 20.31 41.508 20.2436 41.9773 20.1294C42.0329 20.117 42.0606 20.0954 42.0606 20.0645C42.0606 19.9565 41.8214 19.9024 41.3429 19.9024C40.4321 19.9024 39.9768 20.1741 39.9768 20.7175C39.9768 20.844 40.0015 20.9799 40.0509 21.125C40.1651 21.4522 40.3442 21.6807 40.588 21.8103C40.7887 21.9184 41.065 21.9724 41.417 21.9724C41.5374 21.9724 41.7319 21.9647 42.0004 21.9493C42.269 21.9307 42.4697 21.9215 42.6024 21.9215C43.1211 21.9215 43.5101 22.0002 43.7694 22.1576C44.0843 22.346 44.2417 22.6701 44.2417 23.1301ZM11.4094 32.6848C11.4094 33.0306 11.3338 33.3949 11.1825 33.7777C10.6731 35.0527 9.83802 35.6902 8.67723 35.6902C8.2018 35.6902 7.76033 35.5821 7.35282 35.366C7.12437 35.2425 6.84807 35.0419 6.52391 34.764C6.72767 35.7365 7.10122 36.7537 7.64456 37.8157C6.37881 38.0689 5.08528 38.3405 3.76396 38.6307C3.73308 38.5196 3.71765 38.3992 3.71765 38.2695C3.71765 38.109 3.74698 38.0179 3.80563 37.9963C3.91677 37.9654 4.08039 37.9145 4.2965 37.8435C4.52804 37.7571 4.64381 37.6166 4.64381 37.4221C4.64381 37.3943 4.64226 37.365 4.63918 37.3341C4.46012 35.9757 4.37059 34.8844 4.37059 34.0601C4.37059 33.1926 4.45394 32.3514 4.62065 31.5364C4.41998 31.6074 4.23321 31.6429 4.06033 31.6429C3.83805 31.6429 3.65127 31.595 3.5 31.4993L3.58335 30.3324C4.44777 30.7676 5.31836 30.9853 6.19512 30.9853C6.47297 30.9853 6.92062 30.9544 7.53805 30.8927C8.15858 30.8309 8.62784 30.8001 8.94582 30.8001C9.7948 30.8001 10.4308 30.9884 10.8537 31.365C11.2242 31.6923 11.4094 32.1322 11.4094 32.6848ZM10.3489 32.9117C10.3489 32.6802 10.1622 32.4965 9.78862 32.3606C9.42742 32.2279 8.95045 32.1615 8.35771 32.1615C7.70631 32.1615 7.1182 32.285 6.59337 32.532C6.08707 32.7666 5.83392 33.0167 5.83392 33.2822C5.83392 33.4489 6.05774 33.5955 6.50539 33.7221C6.91598 33.8394 7.34356 33.8981 7.78812 33.8981C8.38086 33.8981 8.9489 33.7993 9.49225 33.6017C10.0634 33.3949 10.3489 33.1649 10.3489 32.9117ZM14.9751 38.1121C14.5645 37.933 14.157 37.8435 13.7526 37.8435C13.2123 37.8435 12.6427 37.9886 12.0438 38.2788C12.0006 38.3004 11.9728 38.3081 11.9605 38.302C11.945 38.2927 11.9435 38.2634 11.9558 38.214C12.3633 36.5716 12.5671 35.2256 12.5671 34.1759C12.5671 33.259 12.4498 32.3792 12.2152 31.5364C12.1781 31.4098 12.0917 31.3203 11.9558 31.2678C11.8509 31.2307 11.6718 31.2029 11.4187 31.1844C11.3013 31.0795 11.2535 30.8278 11.2751 30.4296C11.2936 30.4358 11.3477 30.4389 11.4372 30.4389C11.8941 30.4389 12.9021 30.3524 14.4611 30.1795C14.671 30.9143 14.776 31.7309 14.776 32.6292C14.776 34.284 14.4657 35.7257 13.8452 36.9544C14.0675 36.8463 14.2913 36.7923 14.5167 36.7923C14.6957 36.7923 14.8485 36.8201 14.9751 36.8757V38.1121ZM23.3013 37.8342C23.1562 37.7324 22.92 37.6814 22.5928 37.6814C22.1976 37.6814 21.7515 37.7463 21.2545 37.8759C20.7574 38.0056 20.3684 38.1569 20.0875 38.3297C20.1956 37.8111 20.2496 37.4653 20.2496 37.2924C20.2496 37.24 20.2403 37.2153 20.2218 37.2183C20.2095 37.2214 20.1894 37.2338 20.1616 37.2554C19.643 37.6814 19.024 37.9408 18.3047 38.0334C17.962 38.0766 17.6718 38.0982 17.4341 38.0982C16.7302 38.0982 16.2254 37.9485 15.9198 37.649C15.645 37.3804 15.5077 36.9683 15.5077 36.4126C15.5077 36.1224 15.5354 35.8029 15.591 35.454C15.7052 34.7625 15.9522 34.1913 16.3319 33.7406C16.7888 33.2065 17.3739 32.9395 18.087 32.9395C18.8588 32.9395 19.6105 33.2945 20.3422 34.0046C20.3422 33.8502 20.299 33.6326 20.2125 33.3516C20.1168 33.0522 20.0088 32.8083 19.8884 32.62C21.4073 32.3884 22.4569 32.1661 23.0373 31.9531C23.0929 32.1476 23.1207 32.3437 23.1207 32.5412C23.1207 32.7018 23.1022 32.8006 23.0651 32.8376C22.6113 32.992 22.3844 33.1309 22.3844 33.2544V33.2636C22.3844 33.3655 22.389 33.5261 22.3983 33.7452C22.4075 33.9644 22.4122 34.1327 22.4122 34.25C22.4122 35.241 22.2856 36.0591 22.0324 36.7043C22.2362 36.5778 22.4785 36.5145 22.7595 36.5145C22.9077 36.5145 23.045 36.5314 23.1716 36.5654L23.3013 37.8342ZM20.6108 35.2456C20.6108 35.116 20.4811 35.0079 20.2218 34.9215C19.947 34.8289 19.5889 34.7825 19.1475 34.7825C18.5702 34.7825 18.0145 34.8906 17.4804 35.1067C16.9617 35.3197 16.7024 35.5343 16.7024 35.7504C16.7024 35.9233 16.8861 36.0622 17.2535 36.1672C17.5838 36.2598 17.9759 36.3061 18.4297 36.3061C18.9453 36.3061 19.4438 36.1826 19.9254 35.9356C20.3823 35.6979 20.6108 35.4679 20.6108 35.2456ZM30.2151 34.5047C30.2151 35.2148 29.6779 35.5698 28.6035 35.5698C28.0664 35.5698 27.6218 35.4741 27.2699 35.2827C26.9395 35.1036 26.7744 34.8921 26.7744 34.6483C26.7744 34.2624 26.9766 33.9583 27.381 33.736C27.736 33.5415 28.1621 33.4442 28.6591 33.4442C28.69 33.4442 28.7054 33.4381 28.7054 33.4257C28.7054 33.3794 28.5912 33.3192 28.3627 33.2451C28.0972 33.1556 27.824 33.1108 27.5431 33.1108C26.2959 33.1108 25.6723 33.6712 25.6723 34.7918C25.6723 34.9122 25.6815 35.0542 25.7 35.2178C25.7927 35.9989 25.9594 36.5361 26.2002 36.8294C26.3792 37.0455 26.637 37.1535 26.9735 37.1535C27.4952 37.1535 27.9846 37.0501 28.4415 36.8433C28.849 36.6611 29.1747 36.4265 29.4186 36.1394C29.434 36.1363 29.4464 36.1455 29.4556 36.1672C29.1685 37.3804 28.4538 38.0627 27.3116 38.214C27.0244 38.251 26.7312 38.2695 26.4317 38.2695C24.4281 38.2695 23.4263 37.3372 23.4263 35.4725C23.4263 34.5649 23.6733 33.8934 24.1672 33.4581C24.6334 33.0475 25.3882 32.7898 26.4317 32.6848C26.6849 32.6601 26.9318 32.6478 27.1726 32.6478C28.0432 32.6478 28.7656 32.8021 29.3398 33.1108C29.8492 33.3856 30.1317 33.7113 30.1873 34.0879C30.2058 34.2176 30.2151 34.3565 30.2151 34.5047ZM36.9714 34.9446C36.9714 35.1021 36.9652 35.2873 36.9529 35.5003C36.9529 35.5374 36.9374 35.5513 36.9066 35.542C36.3817 35.4247 35.522 35.2688 34.3272 35.0743C33.2652 34.9045 32.7095 34.8196 32.6601 34.8196C32.5891 34.8196 32.5536 35.1098 32.5536 35.6902C32.5536 36.4218 32.7142 36.9683 33.0352 37.3295C33.2791 37.6042 33.5925 37.7509 33.9753 37.7694C34.1914 37.7787 34.3905 37.7463 34.5726 37.6722C34.6437 37.6444 34.6792 37.6166 34.6792 37.5888C34.6792 37.5703 34.6606 37.5549 34.6236 37.5425C34.2192 37.4684 33.8888 37.3187 33.6326 37.0933C33.3764 36.8649 33.2482 36.5932 33.2482 36.2783C33.2482 36.0807 33.3594 35.9217 33.5817 35.8013C33.807 35.6778 34.1127 35.6161 34.4986 35.6161C34.7641 35.6161 35.045 35.6439 35.3414 35.6994C36.1379 35.8538 36.5361 36.1733 36.5361 36.658C36.5361 36.7939 36.4991 36.9328 36.425 37.0748C36.2181 37.4638 35.9619 37.7416 35.6563 37.9083C35.2117 38.1491 34.5356 38.2695 33.628 38.2695C32.5845 38.2695 31.7509 37.8836 31.1273 37.1118C30.5932 36.4543 30.3262 35.7118 30.3262 34.8844C30.3262 33.3563 31.575 32.5922 34.0725 32.5922C35.5204 32.5922 36.4111 32.9549 36.7445 33.6804C36.8958 34.0107 36.9714 34.4322 36.9714 34.9446ZM35.1978 33.8795C35.1978 33.7067 35.0851 33.5662 34.8598 33.4581C34.6344 33.347 34.3365 33.2914 33.966 33.2914C33.5338 33.2914 33.1587 33.3316 32.8407 33.4118C32.4672 33.5044 32.2804 33.6295 32.2804 33.7869C32.2804 34.1852 32.9179 34.3843 34.1929 34.3843C34.8628 34.3843 35.1978 34.216 35.1978 33.8795Z" fill="#FBFBFB"/>
<path d="M49 41.8064C49 48.084 43.9111 53.1729 37.6336 53.1729H11.3664C5.08892 53.1729 0 48.084 0 41.8064H49Z" fill="#FBFBFB"/>
<ellipse cx="43.0726" cy="48.1785" rx="1.18548" ry="0.516656" transform="rotate(180 43.0726 48.1785)" fill="#1F1B1B"/>
<ellipse cx="30.4273" cy="46.8008" rx="1.18548" ry="0.516656" transform="rotate(180 30.4273 46.8008)" fill="#1F1B1B"/>
<ellipse cx="36.7501" cy="49.5563" rx="1.18548" ry="0.516656" transform="rotate(180 36.7501 49.5563)" fill="#1F1B1B"/>
<ellipse cx="32.7984" cy="51.9674" rx="1.18548" ry="0.516656" transform="rotate(180 32.7984 51.9674)" fill="#1F1B1B"/>
<ellipse cx="27.2662" cy="49.5563" rx="1.18548" ry="0.516656" transform="rotate(180 27.2662 49.5563)" fill="#1F1B1B"/>
<ellipse cx="21.7339" cy="47.1452" rx="1.18548" ry="0.516656" transform="rotate(180 21.7339 47.1452)" fill="#1F1B1B"/>
<ellipse cx="25.6854" cy="44.3897" rx="1.18548" ry="0.516656" transform="rotate(180 25.6854 44.3897)" fill="#1F1B1B"/>
<ellipse cx="12.2501" cy="45.0786" rx="1.18548" ry="0.516656" transform="rotate(180 12.2501 45.0786)" fill="#1F1B1B"/>
<ellipse cx="3.55646" cy="45.0786" rx="1.18548" ry="0.516656" transform="rotate(180 3.55646 45.0786)" fill="#1F1B1B"/>
<ellipse cx="7.50812" cy="47.4897" rx="1.18548" ry="0.516656" transform="rotate(180 7.50812 47.4897)" fill="#1F1B1B"/>
<ellipse cx="11.4598" cy="49.9007" rx="1.18548" ry="0.516656" transform="rotate(180 11.4598 49.9007)" fill="#1F1B1B"/>
<ellipse cx="20.9437" cy="52.3118" rx="1.18548" ry="0.516656" transform="rotate(180 20.9437 52.3118)" fill="#1F1B1B"/>
<ellipse cx="20.9437" cy="49.9007" rx="1.18548" ry="0.516656" transform="rotate(180 20.9437 49.9007)" fill="#1F1B1B"/>
<ellipse cx="14.6209" cy="47.4897" rx="1.18548" ry="0.516656" transform="rotate(180 14.6209 47.4897)" fill="#1F1B1B"/>
<ellipse cx="39.1209" cy="45.423" rx="1.18548" ry="0.516656" transform="rotate(180 39.1209 45.423)" fill="#1F1B1B"/>
<ellipse cx="47.8145" cy="43.7008" rx="1.18548" ry="0.516656" transform="rotate(180 47.8145 43.7008)" fill="#1F1B1B"/>
<ellipse cx="34.379" cy="43.3564" rx="1.18548" ry="0.516656" transform="rotate(180 34.379 43.3564)" fill="#1F1B1B"/>
<ellipse cx="20.9437" cy="43.012" rx="1.18548" ry="0.516656" transform="rotate(180 20.9437 43.012)" fill="#1F1B1B"/>
<ellipse cx="7.50812" cy="42.6675" rx="1.18548" ry="0.516656" transform="rotate(180 7.50812 42.6675)" fill="#1F1B1B"/>
</svg>
