<svg width="20" height="11" viewBox="0 0 20 11" fill="none" xmlns="http://www.w3.org/2000/svg">
<path d="M4.18334 10.654C2.89534 10.654 1.78468 10.2107 0.851344 9.324L1.48134 8.638C1.91068 9.03933 2.33534 9.33333 2.75534 9.52C3.18468 9.69733 3.66534 9.786 4.19734 9.786C4.67334 9.786 5.09334 9.688 5.45734 9.492C5.82134 9.296 6.10134 9.02067 6.29734 8.666C6.50268 8.31133 6.60534 7.90533 6.60534 7.448C6.60534 6.79467 6.38134 6.26733 5.93334 5.866C5.49468 5.46467 4.91601 5.264 4.19734 5.264C3.82401 5.264 3.46001 5.31067 3.10534 5.404C2.75068 5.488 2.38201 5.628 1.99934 5.824L1.29934 5.6L1.52334 0.699999H7.09534V1.582H2.39134L2.23734 4.97C2.61068 4.78333 2.97001 4.65267 3.31534 4.578C3.66068 4.494 4.02468 4.452 4.40734 4.452C5.05134 4.452 5.61134 4.578 6.08734 4.83C6.57268 5.07267 6.94601 5.418 7.20734 5.866C7.47801 6.30467 7.61334 6.818 7.61334 7.406C7.61334 8.05 7.46868 8.61467 7.17934 9.1C6.89001 9.58533 6.48868 9.968 5.97534 10.248C5.46201 10.5187 4.86468 10.654 4.18334 10.654ZM9.78061 10.612C9.57528 10.612 9.39794 10.5373 9.24861 10.388C9.10861 10.2387 9.03861 10.0613 9.03861 9.856C9.03861 9.64133 9.10861 9.464 9.24861 9.324C9.39794 9.17467 9.57528 9.1 9.78061 9.1C9.98594 9.1 10.1586 9.17467 10.2986 9.324C10.4479 9.464 10.5226 9.64133 10.5226 9.856C10.5226 10.0613 10.4479 10.2387 10.2986 10.388C10.1586 10.5373 9.98594 10.612 9.78061 10.612ZM15.7951 10.654C15.0485 10.654 14.3858 10.4393 13.8071 10.01C13.2378 9.58067 12.7898 8.988 12.4631 8.232C12.1365 7.46667 11.9731 6.58933 11.9731 5.6C11.9731 4.60133 12.1365 3.724 12.4631 2.968C12.7898 2.212 13.2378 1.61933 13.8071 1.19C14.3858 0.760666 15.0485 0.546 15.7951 0.546C16.5418 0.546 17.1998 0.760666 17.7691 1.19C18.3478 1.61933 18.8005 2.212 19.1271 2.968C19.4538 3.724 19.6171 4.60133 19.6171 5.6C19.6171 6.58933 19.4538 7.46667 19.1271 8.232C18.8005 8.988 18.3478 9.58067 17.7691 10.01C17.1998 10.4393 16.5418 10.654 15.7951 10.654ZM15.7951 9.744C16.3645 9.744 16.8545 9.576 17.2651 9.24C17.6851 8.89467 18.0118 8.414 18.2451 7.798C18.4785 7.17267 18.5951 6.44 18.5951 5.6C18.5951 4.76 18.4785 4.032 18.2451 3.416C18.0118 2.79067 17.6851 2.31 17.2651 1.974C16.8545 1.62867 16.3645 1.456 15.7951 1.456C15.2351 1.456 14.7451 1.62867 14.3251 1.974C13.9051 2.31 13.5785 2.79067 13.3451 3.416C13.1118 4.032 12.9951 4.76 12.9951 5.6C12.9951 6.44 13.1118 7.17267 13.3451 7.798C13.5785 8.414 13.9051 8.89467 14.3251 9.24C14.7451 9.576 15.2351 9.744 15.7951 9.744Z" fill="#FBFBFB"/>
</svg>
